<svg xmlns="http://www.w3.org/2000/svg" xmlns:xlink="http://www.w3.org/1999/xlink" width="1440" height="1024" viewBox="0 0 1440 1024"><defs><style>.a{clip-path:url(#b);}.b,.g,.w{fill:none;}.c,.j{fill:#e8e8e8;}.d,.o{fill:#018ac3;}.e{fill:#ebf4f8;}.f{fill:#4c4541;}.g{stroke:#000;stroke-linecap:round;stroke-miterlimit:2.731;stroke-width:3px;}.h{fill:#1b4253;}.i{fill:#e6eef1;}.j,.n,.o{fill-rule:evenodd;}.k{fill:#c4c4c4;}.l{fill:#d4cd18;}.m{fill:#593a25;}.n{fill:#29b6f6;}.p{fill:#01ceb4;}.q{fill:#383939;}.r{fill:#dfe0df;}.s{fill:#fff;}.t{fill:#8d999e;}.u{fill:#54c5f8;}.v{fill:#5ca5c7;}.w{stroke:#3f3d56;stroke-miterlimit:10;stroke-width:2px;}.x{fill:#3f3d56;}.y{fill:#8e9268;}.z{fill:#508252;}.aa{fill:#ff6584;}.ab{fill:#6baa61;}.ac{fill:#af5ea7;}</style><clipPath id="b"><rect width="1440" height="1024"/></clipPath></defs><g id="a" class="a"><rect class="b" width="1440" height="1024"/><path class="c" d="M318.667,807.378C197.856,793.8,159.629,823.823,155.616,840.531c-12.693,50.994,173.811,30.72,268.65,14.209,98.487,32.838,268.651,13.682,341.421,0,62.594,27.154,211.747,11.314,278.5,0,201.89,14.209,225.42,4.934,166.88-41.047-46.84-36.785-231.448-22.826-317.9-11.249-18.822-30.469-220.866-22.694-319.535-15C490.471,755.714,369,787.512,318.667,807.378Z"/><path class="d" d="M685.417,273.978c-11.09,7.221-12.509,39.359-11.833,54.526,1.443-5.223,4.941-11.238,7.394,6.483,3.066,22.15,40.43,16.473,48.452-10.75,6.419-21.779-8.253-27.357-16.391-27.424.1-16.161-10.06-17.4-15.151-16C698.353,275.228,689.767,273.93,685.417,273.978Z"/><path class="d" d="M691.615,280.855c-11.09,7.221-12.509,39.359-11.832,54.526,1.443-5.223,4.941-11.238,7.394,6.482,3.066,22.151,40.429,16.474,48.452-10.749,6.418-21.779-8.254-27.358-16.392-27.425.1-16.161-10.059-17.4-15.15-16C704.551,282.105,695.966,280.806,691.615,280.855Z"/><path class="e" d="M685.705,301.655c-6.512,4.235-7.353,23.076-6.959,31.967.848-3.062,2.9-6.589,4.338,3.8,1.794,12.985,23.728,9.647,28.445-6.314,3.773-12.768-4.838-16.035-9.616-16.072.062-9.474-5.9-10.2-8.889-9.377C693.3,302.384,688.259,301.625,685.705,301.655Z"/><path class="f" d="M666.232,304.469c1.543-.751,3.366-2.814,11.1,13.073S695.791,361.25,694.248,362s-17.583-25.212-25.319-41.1S664.689,305.221,666.232,304.469Z"/><path class="g" d="M664.923,273.362c-3.679,6.23-8.92,21.781-.445,34.143"/><rect class="h" width="9.05" height="11.061" rx="4.525" transform="translate(671.471 273.39) rotate(133.958)"/><path class="g" d="M666.455,305.881c-1.2-7.135-.525-23.531,11.816-32.036"/><rect class="h" width="9.05" height="11.061" rx="4.525" transform="translate(671.608 269.989) rotate(-24.849)"/><rect class="h" width="5.59" height="6.832" rx="2.795" transform="translate(492.283 322.001) rotate(26.395)"/><path class="g" d="M493.049,326.744c3.434,2.86,9.712,10.818,7.35,19.769"/><path class="g" d="M502.765,348.168c2.972-3.338,11.132-9.351,20-6.7"/><path class="d" d="M493.831,334.413c5.961,5.593,3.339,25.29,1.282,34.439-.31-3.332-1.785-7.369-5.2,3.141-4.267,13.137-26.372,5.633-28.3-11.791-1.541-13.94,7.986-15.741,12.942-14.9,1.693-9.838,8-9.491,10.948-8.088C485.829,333.77,491.19,333.911,493.831,334.413Z"/><path class="d" d="M518.524,346.668c-8.06-1.365-22.161,12.634-28.2,19.8,2.842-1.768,6.95-3.034.643,6.04-7.882,11.342,11.461,24.409,26.5,15.407,12.033-7.2,7.707-15.879,4.039-19.317,6.812-7.3,2.719-12.115-.179-13.611C523.875,352.652,520.52,348.467,518.524,346.668Z"/><path class="f" d="M502.52,346.886c1.549.8,4.143,1.393-.841,11.1s-15.658,24.856-17.208,24.061,4.257-18.9,9.241-28.608S500.97,346.091,502.52,346.886Z"/><rect class="h" width="5.59" height="6.832" rx="2.795" transform="translate(522.048 336.773) rotate(26.395)"/><rect class="i" width="9.573" height="11.383" rx="4.783" transform="matrix(0.993, 0.12, -0.12, 0.993, 483.09, 341.67)"/><rect class="i" width="9.541" height="11.422" rx="4.77" transform="translate(516.324 351.137) rotate(61.091)"/><rect class="i" width="15.991" height="19.762" rx="7.986" transform="matrix(0.988, -0.153, 0.153, 0.988, 466.67, 351.898)"/><rect class="i" width="16.002" height="19.749" rx="7.986" transform="translate(514.656 364.997) rotate(76.08)"/><path class="j" d="M385.588,134.494a11.39,11.39,0,0,0,.412-3.025c0-16.724-37.384-30.281-83.5-30.281a204.274,204.274,0,0,0-43.2,4.362C248.554,100.85,234.448,98,219,98c-23.8,0-44.423,6.768-54.475,16.64q-3.214-.169-6.525-.171c-33.689,0-61,13.557-61,30.281s27.311,30.281,61,30.281a112.381,112.381,0,0,0,29.488-3.766C202.763,178.4,226.651,183,253.5,183c28.081,0,52.924-5.027,68.061-12.735,9.257,6.1,24.369,10.079,41.439,10.079,28.167,0,51-10.822,51-24.172C414,146.666,402.424,138.442,385.588,134.494Z"/><path class="j" d="M578.011,139.207c22.4-.49,41.11,6.937,44.441,17.062,14.6,1.321,26.839,4.541,34.372,8.912,7.209-2.9,16.856-4.78,27.488-5.012,22.565-.494,41.022,6.632,41.225,15.916s-17.925,17.21-40.49,17.7c-12.841.281-24.352-1.906-31.925-5.554-11,5.382-28.662,9.1-48.647,9.534-19.589.428-37.088-2.386-48.341-7.108a85.8,85.8,0,0,1-21.457,3.09c-24.58.537-44.712-8.455-44.966-20.085s19.465-21.495,44.045-22.032q2.412-.054,4.763.015C545.7,144.623,560.643,139.587,578.011,139.207Z"/><path class="j" d="M275,452.156c0,15.516,11.054,28.749,26.579,33.882a32.254,32.254,0,0,0-.868,7.445c0,19.971,18.313,36.161,40.9,36.161,13.106,0,24.773-5.449,32.259-13.925a44.426,44.426,0,0,0,23.838,6.772c22.59,0,40.9-16.189,40.9-36.161a32.25,32.25,0,0,0-1.005-8c9.619-6.616,15.808-16.948,15.808-28.557,0-19.971-18.314-36.161-40.9-36.161a45.711,45.711,0,0,0-13.34,1.967C396.138,398.258,379.2,385,358.756,385c-20.63,0-37.693,13.5-40.5,31.054q-1.167-.058-2.352-.059C293.313,415.995,275,432.185,275,452.156Z"/><ellipse class="k" cx="8.811" cy="9.912" rx="8.811" ry="9.912" transform="translate(435.797 509.82)"/><ellipse class="k" cx="5.507" cy="6.241" rx="5.507" ry="6.241" transform="translate(457.824 528.91)"/><ellipse class="k" cx="2.937" cy="3.304" rx="2.937" ry="3.304" transform="translate(468.837 541.392)"/><rect class="c" width="6.474" height="426.203" rx="3.237" transform="matrix(0.898, 0.44, -0.44, 0.898, 1284.74, 118.618)"/><path class="l" d="M909.511,405.436a5,5,0,0,1,4.734-.438l187.665,80.059a4.972,4.972,0,0,1,2.77,3l8.77,25.909a5,5,0,0,1-6.64,6.226L887.078,429.742a5,5,0,0,1-.868-8.785Z"/><path class="d" d="M960.745,282.017c11.847,6.176,16.266,36.814,16.994,51.361-1.939-4.9-6.024-10.421-6.848,6.684-1.031,21.383-39.213,18.406-49.829-7.1-8.494-20.4,5.774-26.7,13.969-27.3-1.6-15.448,8.52-17.3,13.78-16.3C947.824,284.06,956.356,282.255,960.745,282.017Z"/><path class="m" d="M1024.07,415.933c-2.53-10.133-12.79-6.645-17.6-3.635l4.87,6.374c-.68,7.273-2.59,22.114-4.81,23.291a27.521,27.521,0,0,1-6.645,2.207c-17.2,12.195-8.853,13.253-2.531,12.258-.9,13.926,6.226,5.8,9.9,0-1.83,4.563-3.38,13.362,5.14,12.053s6.95-14.329,5.09-20.676Z"/><path class="m" d="M1038.66,420.023c6.72-10.174,14.53-1.816,17.6,3.635l-7.21,4.968c-2.56,8.39-7.29,25.739-5.79,28.019a26.817,26.817,0,0,0,5.08,5.354c10.33,21.075,2.28,18.612-3.04,14.747-5.26,15.888-8.2,3.74-9.01-4.32-.32,5.879-2.75,16.344-9.93,11.171s-.07-18.977,4.38-25.232Z"/><path class="d" d="M1166.56,333.2c-12.62-2.839-35.82,16.641-45.84,26.735,4.6-2.353,11.17-3.834.6,9.074-13.2,16.135,16.42,37.556,40.76,25.625,19.47-9.545,13.23-22.92,7.68-28.414,11.25-10.208,5.12-17.8.65-20.322C1174.59,342.665,1169.58,336.089,1166.56,333.2Z"/><path class="n" d="M1082.25,284.1c.03-.17.07-.341.11-.512,2.61-12.661-3.86-24.7-14.45-26.885s-21.3,6.3-23.92,18.963v.028c-36.13.9-68.036,25.928-75.507,62.106-8.735,42.3,19.243,83.838,62.487,92.769s85.4-18.124,94.13-60.428C1132.43,334.653,1113.93,299.711,1082.25,284.1Z"/><path class="o" d="M1071.74,372.138a32.162,32.162,0,1,0-18.09-52.58,30.983,30.983,0,0,0-23.29-21.645c-16.84-3.477-33.4,7.806-36.99,25.2s7.14,34.314,23.98,37.791a30.985,30.985,0,0,0,29.96-10.65A32.49,32.49,0,0,0,1071.74,372.138Z"/><ellipse class="p" cx="16.535" cy="16.928" rx="16.535" ry="16.928" transform="translate(1008.695 307.446) rotate(14.591)"/><ellipse class="q" cx="14.606" cy="14.801" rx="14.606" ry="14.801" transform="matrix(0.92, 0.391, -0.391, 0.92, 1012.982, 308.424)"/><ellipse class="r" cx="4.364" cy="4.857" rx="4.364" ry="4.857" transform="translate(1022.213 315.937) rotate(14.591)"/><ellipse class="p" cx="16.535" cy="16.928" rx="16.535" ry="16.928" transform="translate(1063.485 318.083) rotate(14.591)"/><ellipse class="q" cx="14.606" cy="14.801" rx="14.606" ry="14.801" transform="matrix(0.92, 0.391, -0.391, 0.92, 1067.772, 319.062)"/><ellipse class="r" cx="5.425" cy="4.872" rx="5.425" ry="4.872" transform="translate(1074.951 326.052) rotate(14.591)"/><path class="s" d="M1087.11,409.318c-3.35,16.263-32.72,26.267-56.21,21.619-24.55-4.856-47.772-28.273-44.413-44.536s22.793-21.721,56.653-14.729S1090.47,393.055,1087.11,409.318Z"/><path class="f" d="M1047.88,337.311c3.48,1.211,8.91,2.253,4.3,14.828s-17.51,31.92-20.99,30.709-1.75-24.975,2.86-37.55S1044.41,336.1,1047.88,337.311Z"/><rect class="c" width="6.474" height="356.285" rx="3.237" transform="matrix(0.898, 0.44, -0.44, 0.898, 1044.77, 104.302)"/><path d="M343.8,454.84h-3.723V469h-2.149v-7.8h-5.774a3.677,3.677,0,0,1,.525.8,2.52,2.52,0,0,1,.22,1.111q0,3.748-3.162,3.748a3.4,3.4,0,0,1-1.391-.281,3.291,3.291,0,0,1-1.074-.769,3.647,3.647,0,0,1-.684-1.172,4.355,4.355,0,0,1-.244-1.477q0-3.918,4.309-3.918h7.275V454.84H326v-1.953h17.8Zm-15.479,8.41q0,1.7,1.416,1.7,1.283,0,1.282-1.831a1.925,1.925,0,0,0-.085-.586,2.113,2.113,0,0,0-.232-.512,2.391,2.391,0,0,0-.33-.415,2.018,2.018,0,0,0-.354-.306,2.152,2.152,0,0,0-1.33.635A2.078,2.078,0,0,0,328.319,463.25Zm33.741-8.41h-3.724V469h-2.148v-6.714h-6.116v.525a6.322,6.322,0,0,1-.232,1.819,3.363,3.363,0,0,1-.671,1.257,2.694,2.694,0,0,1-1.074.745,4.051,4.051,0,0,1-1.416.232,2.8,2.8,0,0,1-1.245-.269,2.833,2.833,0,0,1-.916-.72,3.585,3.585,0,0,1-.574-1.074,4.271,4.271,0,0,1-.2-1.306,3.17,3.17,0,0,1,.208-1.111,2.857,2.857,0,0,1,.647-1.013,3.192,3.192,0,0,1,1.11-.745,4.111,4.111,0,0,1,1.624-.293h.586V454.84h-4.981v-1.953H362.06Zm-5.872,5.493V454.84h-6.116v5.493Zm-8.264,1.953a3.429,3.429,0,0,0-1.734.318,1.015,1.015,0,0,0-.488.9,2.1,2.1,0,0,0,.244,1.05.868.868,0,0,0,.818.427.981.981,0,0,0,.6-.171,1.174,1.174,0,0,0,.354-.464,2.089,2.089,0,0,0,.159-.622,5.022,5.022,0,0,0,.049-.7Zm27.93,0h-7.8a2.379,2.379,0,0,1-1.855,1.6l4.3,5.078-1.661,1.4-7.177-8.471,1.672-1.4,1.331,1.587a.354.354,0,0,0,.268.073q1.7,0,1.7-3.858V454.84h-5.444v-1.953h15.234v1.953h-7.642v3.454a14.779,14.779,0,0,1-.109,2.039h7.19Zm17.187-7.446h-3.479V469h-2.148v-7.849h-6.153a2.535,2.535,0,0,0-1.855.683,2.419,2.419,0,0,0-.7,1.807,4.571,4.571,0,0,0,1.257,3.015q.294.354,2.454,2.283l-1.685,1.453q-4.174-3.772-4.174-6.6a4.773,4.773,0,0,1,1.135-3.345,4.179,4.179,0,0,1,3.235-1.245h6.482V454.84H375.536v-1.953h17.5Zm-3.149-1.55-1.294,1.293-6.69-6.994,1.465-1.477Z"/><path class="j" d="M1279.07,117.214a10.529,10.529,0,0,0,.14-1.683c0-14.756-32.75-26.718-73.16-26.718a177.8,177.8,0,0,0-37.85,3.849c-9.41-4.146-21.77-6.661-35.31-6.661-20.85,0-38.92,5.972-47.73,14.682-1.88-.1-3.78-.151-5.71-.151-29.52,0-53.45,11.963-53.45,26.719s23.93,26.719,53.45,26.719a97.766,97.766,0,0,0,25.83-3.324c13.39,6.3,34.32,10.355,57.84,10.355,24,0,45.3-4.221,58.64-10.741,9,4.836,22.75,7.928,38.18,7.928,27.09,0,49.06-9.548,49.06-21.328C1309,128.031,1296.66,120.455,1279.07,117.214Z"/><path class="j" d="M870.941,128.8q-1.665.049-3.366.05h-.493C865.23,135.665,848.627,141,828.419,141c-14.108,0-26.459-2.6-33.26-6.49-13.18-1.158-23.159-6.627-23.159-13.2,0-7.414,12.7-13.424,28.37-13.424,10.167,0,19.085,2.53,24.094,6.333q1.952-.069,3.955-.069h.493C830.764,107.335,847.367,102,867.575,102c21.448,0,38.834,6.01,38.834,13.424a4.785,4.785,0,0,1-.075.845c9.338,1.629,15.888,5.435,15.888,9.87,0,5.919-11.66,10.716-26.044,10.716C884.024,136.855,873.815,133.43,870.941,128.8Z"/><path class="m" d="M611.562,734.135c-6.634-10.71-19.549-6.146-26.96-1.455a1.881,1.881,0,0,0-.032,3.131l6.93,4.99a1.985,1.985,0,0,1,.813,1.375c1.18,9.9,2.59,28.594-.526,30.611-2.788,1.806-9.762,3.855-11.544,4.362a2.085,2.085,0,0,0-.767.412c-21.686,18.374-9.775,19.124-.1,16.868a2.251,2.251,0,0,1,2.641,1.669c2.081,8.2,6.878,5.435,10.586,1.6,1.446-1.495,5.153-.379,5.719,1.623,1.232,4.361,4.2,8.524,11.248,6.512,13.027-3.719,6.949-19.658,2.018-27.643a2.041,2.041,0,0,1-.308-1.1l.561-41.924A1.915,1.915,0,0,0,611.562,734.135Z"/><path class="m" d="M636.96,734.475c6.918-10.528,19.706-5.621,26.989-.734a1.881,1.881,0,0,1-.052,3.131l-7.06,4.8a1.982,1.982,0,0,0-.85,1.353c-1.445,9.861-3.354,28.514-.293,30.614a61.5,61.5,0,0,0,9.546,4.641,2.094,2.094,0,0,1,.611.38c21.264,18.982,11.042,19.457,1.669,16.953a2.24,2.24,0,0,0-2.684,1.59c-2.3,8.136-7.021,5.249-10.625,1.317-1.406-1.534-5.141-.518-5.76,1.469-1.349,4.326-4.427,8.408-11.419,6.208-12.923-4.066-6.42-19.836-1.277-27.687a2.038,2.038,0,0,0,.337-1.092l.56-41.924A1.92,1.92,0,0,1,636.96,734.475Z"/><path class="n" d="M666.16,481.165q.014-.456.02-.913c.3-22.507-13.844-40.946-31.594-41.183S602.2,456.885,601.9,479.392c0,.017,0,.033,0,.05-57.953,13.491-101.634,66.819-102.495,131.135-1.006,75.207,56.922,136.961,129.385,137.93s132.022-59.213,133.028-134.421C762.662,551,722.042,497.385,666.16,481.165Z"/><path class="o" d="M630.295,605.819c-8.964,17.01-25.822,28.366-44.992,28.109-28.206-.377-50.737-25.752-50.323-56.677s23.615-55.689,51.821-55.312c19.17.257,35.718,12.06,44.224,29.3,9.341-17.005,26.918-28.352,46.914-28.084,29.423.393,52.939,25.782,52.525,56.707s-24.6,55.675-54.022,55.282C656.445,634.88,639.177,623.068,630.295,605.819Z"/><ellipse class="p" cx="27.1" cy="29.512" rx="27.1" ry="29.512" transform="translate(554.832 545.398) rotate(3.541)"/><ellipse class="q" cx="23.808" cy="25.945" rx="23.808" ry="25.945" transform="translate(562.049 545.652) rotate(11.662)"/><ellipse class="r" cx="6.175" cy="5.596" rx="6.175" ry="5.596" transform="translate(581.204 555.564) rotate(3.541)"/><ellipse class="p" cx="27.1" cy="29.512" rx="27.1" ry="29.512" transform="translate(646.422 545.468) rotate(3.541)"/><ellipse class="q" cx="23.808" cy="25.945" rx="23.808" ry="25.945" transform="translate(653.641 545.724) rotate(11.662)"/><ellipse class="r" cx="6.896" cy="5.596" rx="6.896" ry="5.596" transform="translate(671.358 555.547) rotate(3.541)"/><path class="s" d="M712.7,693.625c-.387,28.912-44.62,55.723-83.921,55.545-41.069-.186-85.726-32.542-85.339-61.454s30.022-44.667,86.748-43.908S713.091,664.713,712.7,693.625Z"/><path class="f" d="M633.191,583.576c5.98.92,15.052.907,11.509,23.928s-18.36,60.359-24.34,59.438-10.536-42.118-6.993-65.139S627.211,582.656,633.191,583.576Z"/><path class="d" d="M641.547,644.383s76.77,32.957,93.792,8.116c17.481-36.4,33.871-38.6,24.721,2.139-6.806,30.3-55.812,84.276-102.22,89.98-37.127,4.563-27.392-24.991-17.884-40.338-22.048-5.4-11.751-24.952-3.847-34.054C618.407,653.091,641.547,644.383,641.547,644.383Z"/><path class="d" d="M613.757,645.56s-82.337,14.153-93.1-13.972c-8.513-39.473-23.94-45.428-24.538-3.683-.445,31.051,34.628,94.965,78.428,111.33,35.04,13.093,32.463-17.916,26.794-35.057,22.7-.109,17.244-21.525,11.679-32.219C634.23,659.423,613.757,645.56,613.757,645.56Z"/><path class="t" d="M809.86,774.71a9.162,9.162,0,1,0,9.162-9.167A9.166,9.166,0,0,0,809.86,774.71Z"/><path class="t" d="M357,789a6,6,0,1,0,6-6A6,6,0,0,0,357,789Z"/><path class="u" d="M849.966,788.939A6.97,6.97,0,1,0,843,781.97,6.968,6.968,0,0,0,849.966,788.939Z"/><path class="u" d="M928.966,802.939A6.97,6.97,0,1,0,922,795.97,6.968,6.968,0,0,0,928.966,802.939Z"/><path class="u" d="M1027.97,790.939a6.97,6.97,0,1,0-6.97-6.969A6.967,6.967,0,0,0,1027.97,790.939Z"/><path class="u" d="M234.966,806.939A6.97,6.97,0,1,0,228,799.97,6.968,6.968,0,0,0,234.966,806.939Z"/><path class="v" d="M428.966,783.939A6.97,6.97,0,1,0,422,776.97,6.968,6.968,0,0,0,428.966,783.939Z"/><path class="v" d="M1090.5,799c6.35,0,11.5-4.253,11.5-9.5s-5.15-9.5-11.5-9.5-11.5,4.253-11.5,9.5S1084.15,799,1090.5,799Z"/><path class="w" d="M1069.45,789.254v-37.9"/><path class="x" d="M1069.45,756.718a5.359,5.359,0,1,0-5.36-5.359A5.36,5.36,0,0,0,1069.45,756.718Z"/><path class="y" d="M1069.45,774.715s-.76-16.466-16.45-14.552Z"/><path class="y" d="M1070,780s.42-8.957,9-7.916Z"/><path class="w" d="M368.451,793.254v-37.9"/><path class="x" d="M368.451,760.718a5.359,5.359,0,1,0-5.356-5.359A5.357,5.357,0,0,0,368.451,760.718Z"/><path class="x" d="M368.451,778.715s-.765-16.466-16.451-14.552Z"/><path class="x" d="M369,784s.419-8.957,9-7.916Z"/><path class="w" d="M835.451,785.254v-37.9"/><path class="x" d="M835.451,752.718a5.359,5.359,0,1,0-5.356-5.359A5.357,5.357,0,0,0,835.451,752.718Z"/><path class="x" d="M835.451,770.715s-.765-16.466-16.451-14.552Z"/><path class="x" d="M836,776s.419-8.957,9-7.916Z"/><path class="w" d="M286.451,812.254v-37.9"/><path class="x" d="M286.451,779.718a5.359,5.359,0,1,0-5.356-5.359A5.357,5.357,0,0,0,286.451,779.718Z"/><path class="z" d="M286.451,797.715s-.765-16.466-16.451-14.552Z"/><path class="z" d="M287,803s.419-8.957,9-7.916Z"/><path class="aa" d="M1069.33,754.657a3.328,3.328,0,1,0-3.33-3.329A3.327,3.327,0,0,0,1069.33,754.657Z"/><path class="ab" d="M368.327,758.657A3.328,3.328,0,1,0,365,755.328,3.328,3.328,0,0,0,368.327,758.657Z"/><path class="ac" d="M835.327,750.657A3.328,3.328,0,1,0,832,747.328,3.328,3.328,0,0,0,835.327,750.657Z"/><path class="aa" d="M286.327,777.657A3.328,3.328,0,1,0,283,774.328,3.328,3.328,0,0,0,286.327,777.657Z"/><path class="t" d="M283,807.5a6.5,6.5,0,1,0,6.5-6.5A6.5,6.5,0,0,0,283,807.5Z"/></g></svg>